<svg xmlns="http://www.w3.org/2000/svg" viewBox="0 0 720 380" width="720" height="380" font-family="'JetBrains Mono','Consolas',monospace">
  <rect width="720" height="380" rx="10" fill="#0a0e16"/>
  <rect x="1" y="1" width="718" height="378" rx="10" fill="none" stroke="#1c2430" stroke-width="2"/>
  <circle cx="26" cy="28" r="6" fill="#ff5f56"/>
  <circle cx="48" cy="28" r="6" fill="#ffbd2e"/>
  <circle cx="70" cy="28" r="6" fill="#27c93f"/>
  <text x="360" y="32" text-anchor="middle" fill="#5b6675" font-size="13">Advanced Hunting — EntraHuntKit</text>
  <line x1="16" y1="52" x2="704" y2="52" stroke="#1c2430" stroke-width="1"/>
  <text x="28" y="86" fill="#9fef00" font-size="14">AuditLogs</text>
  <text x="28" y="108" fill="#8a94a6" font-size="14">| where OperationName has "Consent to application"</text>
  <text x="28" y="130" fill="#8a94a6" font-size="14">| extend App = tostring(TargetResources[0].displayName)</text>
  <rect x="16" y="152" width="688" height="120" rx="6" fill="#0f1420" stroke="#1c2430"/>
  <text x="28" y="178" fill="#5b6675" font-size="12">Results (1)</text>
  <line x1="28" y1="190" x2="692" y2="190" stroke="#1c2430"/>
  <text x="28" y="212" fill="#5b6675" font-size="12">TimeGenerated</text>
  <text x="230" y="212" fill="#5b6675" font-size="12">Actor</text>
  <text x="470" y="212" fill="#5b6675" font-size="12">TargetApp</text>
  <text x="28" y="238" fill="#e6edf3" font-size="12">2026-08-04 09:14:22</text>
  <text x="230" y="238" fill="#e6edf3" font-size="12">j.doe@contoso.com</text>
  <text x="470" y="238" fill="#ff5f56" font-size="12">"Mail Backup Pro" ⚠</text>
  <text x="28" y="262" fill="#5b6675" font-size="11">scopes: Mail.ReadWrite, Mail.Send, offline_access</text>
  <text x="360" y="322" text-anchor="middle" fill="#9fef00" font-size="15" font-weight="bold">▶ Replace this with a real screenshot of a hunt landing a hit</text>
  <text x="360" y="348" text-anchor="middle" fill="#5b6675" font-size="12">docs/img/ — illicit OAuth consent caught in seconds</text>
</svg>
